<svg width="1200" height="800" viewBox="0 0 1200 800" fill="none" xmlns="http://www.w3.org/2000/svg">
  <defs>
    <linearGradient id="bg2" x1="0" y1="0" x2="1200" y2="800" gradientUnits="userSpaceOnUse">
      <stop stop-color="#0C2344"/>
      <stop offset="1" stop-color="#071323"/>
    </linearGradient>
    <linearGradient id="bar" x1="0" y1="0" x2="1" y2="0">
      <stop stop-color="#42D6FF"/>
      <stop offset="1" stop-color="#3F8DFF"/>
    </linearGradient>
  </defs>
  <rect x="16" y="16" width="1168" height="768" rx="30" fill="url(#bg2)" stroke="#42D6FF" stroke-opacity="0.45" stroke-width="3"/>
  <rect x="70" y="80" width="1060" height="70" rx="14" fill="#112D56"/>
  <circle cx="108" cy="115" r="11" fill="#42D6FF"/>
  <circle cx="145" cy="115" r="11" fill="#3F8DFF"/>
  <circle cx="182" cy="115" r="11" fill="#9DD9FF"/>
  <rect x="70" y="190" width="300" height="470" rx="16" fill="#0F274D"/>
  <rect x="390" y="190" width="740" height="220" rx="16" fill="#0F274D"/>
  <rect x="390" y="430" width="740" height="230" rx="16" fill="#0F274D"/>
  <rect x="100" y="240" width="240" height="16" rx="8" fill="url(#bar)"/>
  <rect x="100" y="280" width="200" height="12" rx="6" fill="#CFE6FF" fill-opacity="0.7"/>
  <rect x="100" y="312" width="170" height="12" rx="6" fill="#CFE6FF" fill-opacity="0.45"/>
  <text x="760" y="315" text-anchor="middle" fill="#42D6FF" font-size="54" font-family="Inter, Arial, sans-serif" font-weight="700">Project Preview</text>
  <text x="760" y="525" text-anchor="middle" fill="#9DB2CC" font-size="30" font-family="Inter, Arial, sans-serif">Replace with real project screenshot</text>
</svg>
